<?xml version="1.0" encoding="UTF-8" standalone="no"?>
<!-- Created with Inkscape (http://www.inkscape.org/) -->

<svg
   width="48.642303mm"
   height="48.642303mm"
   viewBox="0 0 48.642303 48.642303"
   version="1.1"
   id="svg1"
   xml:space="preserve"
   sodipodi:docname="favico.svg"
   inkscape:version="1.3 (0e150ed6c4, 2023-07-21)"
   xmlns:inkscape="http://www.inkscape.org/namespaces/inkscape"
   xmlns:sodipodi="http://sodipodi.sourceforge.net/DTD/sodipodi-0.dtd"
   xmlns:xlink="http://www.w3.org/1999/xlink"
   xmlns="http://www.w3.org/2000/svg"
   xmlns:svg="http://www.w3.org/2000/svg"><sodipodi:namedview
     id="namedview1"
     pagecolor="#ffffff"
     bordercolor="#000000"
     borderopacity="0.25"
     inkscape:showpageshadow="2"
     inkscape:pageopacity="0.0"
     inkscape:pagecheckerboard="0"
     inkscape:deskcolor="#d1d1d1"
     inkscape:document-units="mm"
     showgrid="false"
     inkscape:zoom="2.2111026"
     inkscape:cx="158.5182"
     inkscape:cy="89.774215"
     inkscape:window-width="1920"
     inkscape:window-height="1009"
     inkscape:window-x="-8"
     inkscape:window-y="-8"
     inkscape:window-maximized="1"
     inkscape:current-layer="layer1" /><defs
     id="defs1"><linearGradient
       id="linearGradient4"
       inkscape:collect="always"><stop
         style="stop-color:#4b19db;stop-opacity:1;"
         offset="0"
         id="stop3" /><stop
         style="stop-color:#d000cc;stop-opacity:1;"
         offset="1"
         id="stop4" /></linearGradient><linearGradient
       inkscape:collect="always"
       xlink:href="#linearGradient4"
       id="linearGradient2"
       x1="11.712605"
       y1="12.100718"
       x2="76.526382"
       y2="78.775986"
       gradientUnits="userSpaceOnUse" /></defs><g
     inkscape:label="Layer 1"
     inkscape:groupmode="layer"
     id="layer1"
     transform="translate(-18.481669,-20.731273)"><rect
       style="fill:url(#linearGradient2);fill-opacity:1;stroke-width:0.136622"
       id="rect1"
       width="48.642303"
       height="48.642303"
       x="18.481668"
       y="20.731272"
       ry="24.321152" /><path
       id="path2"
       style="fill:#ffffff;stroke-width:2.85129"
       d="M 43.46619 27.213048 C 43.427825 27.215611 43.389763 27.222308 43.351986 27.232685 C 43.203617 27.273955 43.07527 27.374402 42.995418 27.512771 L 28.08315 53.993842 L 28.081083 53.995392 C 28.044043 54.063652 28.018049 54.13929 28.006669 54.217601 C 27.997669 54.296581 28.004606 54.37528 28.024756 54.451695 C 28.044806 54.528445 28.078961 54.59969 28.124491 54.663052 C 28.172891 54.725522 28.230143 54.778145 28.298641 54.818081 L 33.322624 57.788959 C 33.633415 57.426855 34.057792 57.185808 34.52255 57.10683 C 34.987309 57.028731 35.463575 57.118365 35.871305 57.359011 C 36.279037 57.600505 36.592704 57.978685 36.758073 58.429747 C 36.926299 58.880828 36.934937 59.377479 36.783911 59.834829 L 41.744849 62.767467 C 41.764899 62.783067 41.784933 62.799025 41.804793 62.812425 C 41.873283 62.852355 41.947446 62.87723 42.024418 62.88839 C 42.098488 62.89739 42.178151 62.893087 42.252311 62.872887 C 42.326381 62.852837 42.395293 62.817462 42.457983 62.769017 C 42.517773 62.721487 42.568944 62.661222 42.608878 62.592284 L 42.608878 62.593317 L 57.52373 36.110179 C 57.56366 36.041689 57.586764 35.966508 57.598144 35.887971 C 57.607144 35.809661 57.604608 35.729774 57.580058 35.65336 C 57.562208 35.57707 57.525862 35.505733 57.480322 35.443037 C 57.434822 35.380337 57.374868 35.327722 57.309273 35.288007 L 57.308756 35.288524 C 57.295366 35.281824 57.283426 35.277157 57.272066 35.270437 L 52.28219 32.316096 C 51.971401 32.67878 51.546499 32.92032 51.081746 32.998741 C 50.616988 33.077491 50.140722 32.987723 49.732991 32.747077 C 49.325261 32.505293 49.011866 32.125974 48.84364 31.673758 C 48.678319 31.221535 48.669735 30.724743 48.823486 30.267125 L 43.799503 27.292113 C 43.696929 27.232375 43.581286 27.205359 43.46619 27.213048 z M 44.007243 38.208242 C 44.039309 38.204185 44.072006 38.205213 44.103361 38.211343 C 44.166106 38.224123 44.224129 38.256557 44.271309 38.304877 C 44.318479 38.352831 44.342765 38.413437 44.355025 38.479027 L 44.994263 42.934052 L 49.540238 43.801183 L 49.539205 43.801699 C 49.601937 43.813629 49.659456 43.84436 49.706636 43.8911 C 49.748366 43.938218 49.778092 43.998012 49.790352 44.063182 C 49.802592 44.128343 49.790138 44.194888 49.765548 44.253868 C 49.739289 44.313714 49.692099 44.362672 49.634289 44.395462 L 45.512577 46.741572 L 45.591125 51.572801 C 45.591125 51.638784 45.575772 51.703303 45.538932 51.757803 C 45.502052 51.812326 45.449981 51.852586 45.392171 51.877176 C 45.329468 51.901695 45.266262 51.905471 45.203552 51.889061 C 45.140812 51.873081 45.083128 51.837569 45.041288 51.788809 L 42.03527 48.185411 L 37.955416 49.845775 C 37.89231 49.870295 37.829649 49.874577 37.761629 49.858177 C 37.698891 49.842637 37.641195 49.808295 37.599365 49.757925 C 37.558785 49.707532 37.530385 49.644667 37.525985 49.577058 C 37.520655 49.511482 37.535063 49.444835 37.567843 49.385855 L 39.772359 45.473432 L 36.839722 41.958918 C 36.799152 41.908513 36.770741 41.846117 36.766341 41.780117 C 36.761001 41.714133 36.775409 41.647932 36.808199 41.590982 C 36.839759 41.533598 36.891982 41.48889 36.949792 41.46024 C 37.007574 41.43244 37.075185 41.423176 37.137895 41.435436 L 41.568632 42.280345 L 43.773665 38.365856 C 43.805226 38.308476 43.857449 38.264281 43.915259 38.235631 C 43.944144 38.221131 43.975177 38.2123 44.007243 38.208242 z " /></g></svg>
