<?xml version="1.0" encoding="UTF-8" standalone="no"?>
<!-- Created with Inkscape (http://www.inkscape.org/) -->

<svg
   width="48.642303mm"
   height="48.642303mm"
   viewBox="0 0 48.642303 48.642303"
   version="1.1"
   id="svg1"
   xml:space="preserve"
   xmlns:inkscape="http://www.inkscape.org/namespaces/inkscape"
   xmlns:sodipodi="http://sodipodi.sourceforge.net/DTD/sodipodi-0.dtd"
   xmlns="http://www.w3.org/2000/svg"
   xmlns:svg="http://www.w3.org/2000/svg"><sodipodi:namedview
     id="namedview1"
     pagecolor="#ffffff"
     bordercolor="#000000"
     borderopacity="0.25"
     inkscape:showpageshadow="2"
     inkscape:pageopacity="0.0"
     inkscape:pagecheckerboard="0"
     inkscape:deskcolor="#d1d1d1"
     inkscape:document-units="mm" /><defs
     id="defs1" /><g
     inkscape:label="Layer 1"
     inkscape:groupmode="layer"
     id="layer1"
     transform="translate(-18.481669,-20.731273)"><rect
       style="fill:#5f2eea;fill-opacity:1;stroke-width:0.136622"
       id="rect1"
       width="48.642303"
       height="48.642303"
       x="18.481668"
       y="20.731272"
       ry="0" /><g
       id="g1"
       transform="matrix(0.64260985,0,0,0.64260985,-11.227974,-83.65815)"
       style="fill:#ffffff"><path
         d="m 109.1076,183.44761 c -0.0231,-0.0115 -0.0443,-0.0192 -0.0639,-0.0308 l -8.6088,-5.09689 c -0.536206,0.62574 -1.269196,1.04189 -2.071036,1.17719 -0.80185,0.13588 -1.62337,-0.0192 -2.32683,-0.43439 -0.70346,-0.41715 -1.24459,-1.07092 -1.53483,-1.85113 -0.28523,-0.78022 -0.29986,-1.63765 -0.0346,-2.42718 l -8.66786,-5.13235 c -0.23596,-0.13742 -0.51161,-0.17476 -0.77232,-0.10316 -0.25598,0.0712 -0.47716,0.24482 -0.61493,0.48355 l -25.72799,45.68816 -0.004,0.002 c -0.0639,0.11779 -0.10817,0.24828 -0.1278,0.38339 -0.0154,0.13627 -0.004,0.27253 0.0308,0.40437 0.0346,0.13242 0.0935,0.25521 0.17206,0.36453 0.0835,0.10778 0.18207,0.19824 0.30025,0.26714 l 8.66781,5.12542 c 0.53621,-0.62474 1.26919,-1.03993 2.07104,-1.17619 0.80185,-0.13473 1.62337,0.0192 2.32683,0.43439 0.70346,0.41665 1.24459,1.06945 1.5299,1.84767 0.29024,0.77825 0.30487,1.63518 0.0443,2.42425 l 8.55961,5.05952 c 0.0346,0.0269 0.0689,0.055 0.10316,0.0781 0.11818,0.0689 0.24597,0.11163 0.37877,0.13088 0.1278,0.0154 0.26561,0.008 0.39356,-0.0269 0.12779,-0.0346 0.24597,-0.0958 0.35413,-0.17938 0.10316,-0.082 0.1917,-0.18592 0.2606,-0.30486 v 0.002 l 25.732916,-45.69108 c 0.0689,-0.11818 0.10816,-0.24828 0.1278,-0.38378 0.0154,-0.13511 0.0115,-0.27253 -0.0308,-0.40437 -0.0308,-0.13164 -0.0935,-0.2552 -0.17206,-0.36337 -0.0785,-0.10817 -0.18207,-0.19862 -0.29524,-0.26714 z m -7.37895,3.54682 -20.060976,35.61681 c -0.0689,0.11894 -0.15744,0.22287 -0.2606,0.30486 -0.10816,0.0835 -0.22634,0.14397 -0.35413,0.17938 -0.1278,0.0346 -0.26561,0.0443 -0.39356,0.0269 -0.1328,-0.0192 -0.26059,-0.062 -0.37877,-0.13088 l -13.4789,-7.97864 c -0.11317,-0.0689 -0.21633,-0.15897 -0.29524,-0.26714 -0.0835,-0.10778 -0.14281,-0.23173 -0.17707,-0.3626 -0.0346,-0.13242 -0.0443,-0.27022 -0.0231,-0.40487 0.0192,-0.13473 0.0589,-0.2656 0.12779,-0.38339 l 20.06098,-35.61731 c 0.1328,-0.23866 0.35413,-0.41222 0.61488,-0.48355 0.25598,-0.0712 0.53132,-0.0346 0.76744,0.10393 l 13.478896,7.97864 c 0.11818,0.0685 0.21633,0.15897 0.30025,0.26714 0.0785,0.10778 0.1378,0.23134 0.17206,0.36299 0.0346,0.13126 0.0443,0.26868 0.0308,0.40387 -0.0192,0.13472 -0.0639,0.26521 -0.1278,0.38339 z"
         fill="#5f2eea"
         id="path2"
         style="fill:#ffffff;stroke-width:4.91933" /><path
         d="m 90.920934,199.34287 -4.26999,-0.81463 -0.60015,-4.18438 c -0.0115,-0.0616 -0.0346,-0.11894 -0.0789,-0.16398 -0.0443,-0.0454 -0.0985,-0.0758 -0.15744,-0.0878 -0.0589,-0.0115 -0.12279,-0.004 -0.17706,0.0231 -0.0543,0.0269 -0.10316,0.0685 -0.1328,0.12241 l -2.071,3.6767 -4.16175,-0.7935 c -0.0589,-0.0115 -0.1228,-0.003 -0.17707,0.0231 -0.0543,0.0269 -0.10316,0.0689 -0.1328,0.12279 -0.0308,0.0535 -0.0443,0.11548 -0.0393,0.17746 0.004,0.062 0.0308,0.12086 0.0689,0.16821 l 2.75483,3.30089 -2.07104,3.6752 c -0.0308,0.0554 -0.0443,0.11779 -0.0393,0.17938 0.004,0.0635 0.0308,0.12279 0.0689,0.17013 0.0393,0.0473 0.0935,0.0793 0.15243,0.0939 0.0639,0.0154 0.12279,0.0115 0.18207,-0.0115 l 3.83217,-1.55943 2.82366,3.3845 c 0.0393,0.0458 0.0935,0.0793 0.15243,0.0943 0.0589,0.0154 0.11817,0.0115 0.17707,-0.0115 0.0543,-0.0231 0.10316,-0.0608 0.1378,-0.11202 0.0346,-0.0512 0.0493,-0.11201 0.0493,-0.17399 l -0.0739,-4.53755 3.87151,-2.20384 c 0.0543,-0.0308 0.0985,-0.0766 0.12317,-0.1328 0.0231,-0.0554 0.0346,-0.11817 0.0231,-0.17938 -0.0115,-0.0612 -0.0393,-0.11702 -0.0785,-0.16128 -0.0443,-0.0439 -0.0985,-0.0731 -0.15743,-0.0843 z"
         fill="#5f2eea"
         id="path3"
         style="fill:#ffffff;stroke-width:4.91933" /></g></g></svg>
