<?xml version="1.0" encoding="UTF-8" standalone="no"?>
<!-- Created with Inkscape (http://www.inkscape.org/) -->

<svg
   width="48.642303mm"
   height="48.642303mm"
   viewBox="0 0 48.642303 48.642303"
   version="1.1"
   id="svg1"
   xml:space="preserve"
   sodipodi:docname="favico.svg"
   inkscape:version="1.3 (0e150ed6c4, 2023-07-21)"
   xmlns:inkscape="http://www.inkscape.org/namespaces/inkscape"
   xmlns:sodipodi="http://sodipodi.sourceforge.net/DTD/sodipodi-0.dtd"
   xmlns:xlink="http://www.w3.org/1999/xlink"
   xmlns="http://www.w3.org/2000/svg"
   xmlns:svg="http://www.w3.org/2000/svg"><sodipodi:namedview
     id="namedview1"
     pagecolor="#ffffff"
     bordercolor="#000000"
     borderopacity="0.25"
     inkscape:showpageshadow="2"
     inkscape:pageopacity="0.0"
     inkscape:pagecheckerboard="0"
     inkscape:deskcolor="#d1d1d1"
     inkscape:document-units="mm"
     showgrid="false"
     inkscape:zoom="1.1055513"
     inkscape:cx="298.94587"
     inkscape:cy="75.527928"
     inkscape:window-width="1920"
     inkscape:window-height="1009"
     inkscape:window-x="-8"
     inkscape:window-y="-8"
     inkscape:window-maximized="1"
     inkscape:current-layer="layer1" /><defs
     id="defs1"><linearGradient
       id="linearGradient1"
       inkscape:collect="always"><stop
         style="stop-color:#5f2eea;stop-opacity:1;"
         offset="0"
         id="stop1" /><stop
         style="stop-color:#80007e;stop-opacity:1;"
         offset="1"
         id="stop2" /></linearGradient><linearGradient
       inkscape:collect="always"
       xlink:href="#linearGradient1"
       id="linearGradient2"
       x1="11.712605"
       y1="12.100718"
       x2="76.526382"
       y2="78.775986"
       gradientUnits="userSpaceOnUse" /><linearGradient
       inkscape:collect="always"
       xlink:href="#linearGradient1"
       id="linearGradient3"
       x1="31.883728"
       y1="37.603512"
       x2="48.995293"
       y2="52.082523"
       gradientUnits="userSpaceOnUse" /></defs><g
     inkscape:label="Layer 1"
     inkscape:groupmode="layer"
     id="layer1"
     transform="translate(-18.481669,-20.731273)"><rect
       style="fill:url(#linearGradient2);fill-opacity:1;stroke-width:0.136622"
       id="rect1"
       width="48.642303"
       height="48.642303"
       x="18.481668"
       y="20.731272"
       ry="24.321152" /><path
       style="fill:#ffffff;stroke-width:2.85129"
       d="m 57.308878,35.288359 c -0.01339,-0.0067 -0.02568,-0.01113 -0.03704,-0.01785 l -4.98973,-2.954201 c -0.310789,0.362685 -0.735637,0.603889 -1.20039,0.68231 -0.464759,0.07875 -0.94092,-0.01113 -1.348651,-0.251776 -0.407731,-0.241784 -0.721375,-0.620714 -0.889601,-1.072931 -0.165321,-0.452223 -0.173801,-0.949197 -0.02005,-1.406815 L 43.79945,27.292342 c -0.136766,-0.07965 -0.296534,-0.101297 -0.447644,-0.05979 -0.148369,0.04127 -0.276566,0.1419 -0.356418,0.280269 l -14.912166,26.481253 -0.0023,0.0012 c -0.03704,0.06826 -0.0627,0.143905 -0.07408,0.222216 -0.009,0.07898 -0.0023,0.157961 0.01785,0.234376 0.02005,0.07675 0.05419,0.147922 0.09972,0.211284 0.0484,0.06247 0.10553,0.114902 0.174028,0.154838 l 5.023938,2.970737 c 0.310792,-0.362105 0.735633,-0.602752 1.200392,-0.68173 0.464759,-0.0781 0.940919,0.01113 1.34865,0.251777 0.407732,0.241494 0.721375,0.619861 0.886744,1.070924 0.168226,0.451081 0.176706,0.947765 0.02568,1.405116 l 4.961225,2.932543 c 0.02005,0.0156 0.03993,0.03187 0.05979,0.04527 0.06849,0.03993 0.142567,0.06471 0.219539,0.07587 0.07407,0.009 0.15395,0.0046 0.22811,-0.0156 0.07407,-0.02005 0.142568,-0.05552 0.205258,-0.103965 0.05979,-0.04753 0.111111,-0.107762 0.151046,-0.1767 v 0.0012 L 57.523821,36.110391 c 0.03993,-0.06849 0.06269,-0.143906 0.07407,-0.222443 0.009,-0.07831 0.0067,-0.157962 -0.01785,-0.234376 -0.01785,-0.07629 -0.05419,-0.147917 -0.09973,-0.210614 -0.0455,-0.0627 -0.105529,-0.115121 -0.171124,-0.154836 z"
       id="path2" /><path
       d="m 49.540163,43.801389 -4.54601,-0.86729 -0.638945,-4.454866 c -0.01226,-0.06559 -0.03683,-0.126626 -0.084,-0.17458 -0.04718,-0.04832 -0.104873,-0.0807 -0.167618,-0.09348 -0.06271,-0.01226 -0.130735,-0.0044 -0.188505,0.0246 -0.05781,0.02865 -0.109826,0.07294 -0.141387,0.13032 l -2.204873,3.914367 -4.430772,-0.844793 c -0.06271,-0.01226 -0.130734,-0.0032 -0.188516,0.0246 -0.05781,0.02865 -0.109827,0.07335 -0.141387,0.130734 -0.03279,0.05695 -0.04718,0.122947 -0.04184,0.188931 0.0044,0.066 0.03279,0.128679 0.07336,0.179084 l 2.932907,3.514265 -2.204916,3.912772 c -0.03278,0.05898 -0.04718,0.125399 -0.04185,0.190975 0.0044,0.06761 0.03278,0.130734 0.07336,0.181127 0.04183,0.05037 0.09954,0.08442 0.162278,0.09996 0.06802,0.0164 0.130735,0.01226 0.193841,-0.01226 l 4.079888,-1.660233 3.006186,3.60328 c 0.04184,0.04876 0.09954,0.08442 0.16228,0.1004 0.06271,0.01641 0.125813,0.01226 0.188516,-0.01226 0.05781,-0.02459 0.109825,-0.06473 0.146705,-0.119253 0.03684,-0.0545 0.05248,-0.119253 0.05248,-0.185236 l -0.07868,-4.830867 4.121771,-2.346301 c 0.05781,-0.03279 0.104874,-0.08154 0.131133,-0.141386 0.02459,-0.05898 0.03683,-0.125813 0.02459,-0.190974 -0.01226,-0.06517 -0.04184,-0.124588 -0.08357,-0.171706 -0.04718,-0.04674 -0.104874,-0.07782 -0.167606,-0.08975 z"
       fill="#5f2eea"
       id="path3"
       style="fill:url(#linearGradient3);fill-opacity:1;stroke-width:5.23732" /></g></svg>
