<?xml version="1.0" encoding="UTF-8" standalone="no"?>
<svg
   width="130"
   height="51"
   viewBox="0 0 130 51"
   fill="none"
   version="1.1"
   id="svg3"
   sodipodi:docname="logo.svg"
   inkscape:version="1.3 (0e150ed6c4, 2023-07-21)"
   xmlns:inkscape="http://www.inkscape.org/namespaces/inkscape"
   xmlns:sodipodi="http://sodipodi.sourceforge.net/DTD/sodipodi-0.dtd"
   xmlns:xlink="http://www.w3.org/1999/xlink"
   xmlns="http://www.w3.org/2000/svg"
   xmlns:svg="http://www.w3.org/2000/svg">
  <defs
     id="defs3">
    <linearGradient
       id="linearGradient3"
       inkscape:collect="always">
      <stop
         style="stop-color:#4b19db;stop-opacity:1;"
         offset="0"
         id="stop5" />
      <stop
         style="stop-color:#d000cc;stop-opacity:1;"
         offset="1"
         id="stop6" />
    </linearGradient>
    <linearGradient
       inkscape:collect="always"
       xlink:href="#linearGradient3"
       id="linearGradient6"
       x1="65.365593"
       y1="-58.02903"
       x2="82.72197"
       y2="97.798096"
       gradientUnits="userSpaceOnUse" />
  </defs>
  <sodipodi:namedview
     id="namedview3"
     pagecolor="#ffffff"
     bordercolor="#000000"
     borderopacity="0.25"
     inkscape:showpageshadow="2"
     inkscape:pageopacity="0.0"
     inkscape:pagecheckerboard="0"
     inkscape:deskcolor="#d1d1d1"
     inkscape:zoom="1.7582482"
     inkscape:cx="117.44644"
     inkscape:cy="48.059199"
     inkscape:window-width="1920"
     inkscape:window-height="1009"
     inkscape:window-x="-8"
     inkscape:window-y="-8"
     inkscape:window-maximized="1"
     inkscape:current-layer="svg3" />
  <path
     id="path1"
     style="fill-opacity:1;fill:url(#linearGradient6)"
     d="M 27.9375 9.5722656 C 27.4413 9.5722656 26.971443 9.6741802 26.527344 9.875 C 26.096344 10.06246 25.717125 10.323503 25.390625 10.658203 C 25.077225 10.979603 24.822953 11.367066 24.626953 11.822266 C 24.444153 12.264165 24.351562 12.733216 24.351562 13.228516 C 24.351562 13.737315 24.444153 14.212497 24.626953 14.654297 C 24.822953 15.096096 25.077225 15.48366 25.390625 15.818359 C 25.717125 16.139659 26.096344 16.400763 26.527344 16.601562 C 26.971443 16.788962 27.4413 16.882812 27.9375 16.882812 C 28.434 16.882813 28.896925 16.788962 29.328125 16.601562 C 29.772225 16.400763 30.157775 16.139659 30.484375 15.818359 C 30.810975 15.48366 31.065347 15.096096 31.248047 14.654297 C 31.444147 14.212497 31.542969 13.737315 31.542969 13.228516 C 31.542969 12.733216 31.444147 12.264165 31.248047 11.822266 C 31.065347 11.367066 30.810975 10.979603 30.484375 10.658203 C 30.157775 10.323503 29.772225 10.06246 29.328125 9.875 C 28.896925 9.6741802 28.434 9.5722656 27.9375 9.5722656 z M 80.011719 9.5722656 C 79.515519 9.5722656 79.045562 9.6741802 78.601562 9.875 C 78.170363 10.06246 77.791243 10.323503 77.464844 10.658203 C 77.151344 10.979603 76.897272 11.367066 76.701172 11.822266 C 76.518472 12.264165 76.425781 12.733216 76.425781 13.228516 C 76.425781 13.737315 76.518472 14.212497 76.701172 14.654297 C 76.897272 15.096096 77.151344 15.48366 77.464844 15.818359 C 77.791243 16.139659 78.170363 16.400763 78.601562 16.601562 C 79.045562 16.788962 79.515519 16.882812 80.011719 16.882812 C 80.508118 16.882813 80.971444 16.788962 81.402344 16.601562 C 81.846443 16.400763 82.231994 16.139659 82.558594 15.818359 C 82.884993 15.48366 83.139266 15.096096 83.322266 14.654297 C 83.518065 14.212497 83.617188 13.737315 83.617188 13.228516 C 83.617188 12.733216 83.518065 12.264165 83.322266 11.822266 C 83.139266 11.367066 82.884993 10.979603 82.558594 10.658203 C 82.231994 10.323503 81.846443 10.06246 81.402344 9.875 C 80.971444 9.6741802 80.508118 9.5722656 80.011719 9.5722656 z M 55.679688 10.517578 L 55.679688 40.580078 L 61.066406 40.580078 L 61.066406 37.830078 L 64.789062 32.769531 L 69.041016 40.580078 L 75.191406 40.580078 L 68.236328 28.068359 L 75.191406 19.113281 L 69.041016 19.113281 L 61.066406 29.474609 L 61.066406 10.517578 L 55.679688 10.517578 z M 87.925781 10.517578 L 87.925781 19.113281 L 85.320312 19.113281 L 85.320312 24.574219 L 87.925781 24.574219 L 87.925781 30.960938 C 87.925781 32.286336 88.169044 33.532567 88.652344 34.697266 C 89.148543 35.862064 89.820923 36.885832 90.669922 37.769531 C 91.532121 38.63983 92.53167 39.329191 93.667969 39.837891 C 94.804268 40.33329 96.017448 40.580078 97.310547 40.580078 L 101.36523 40.580078 L 101.36523 35.117188 L 97.310547 35.117188 C 96.748747 35.117188 96.221109 35.011275 95.724609 34.796875 C 95.22841 34.569275 94.79754 34.267678 94.431641 33.892578 C 94.065941 33.517778 93.777259 33.08309 93.568359 32.587891 C 93.35926 32.078991 93.255859 31.536737 93.255859 30.960938 L 93.255859 24.574219 L 101.36523 24.574219 L 101.36523 19.113281 L 93.255859 19.113281 L 93.255859 10.517578 L 87.925781 10.517578 z M 0.3515625 11.783203 L 0.3515625 17.546875 L 8.796875 17.546875 L 8.796875 40.580078 L 14.400391 40.580078 L 14.400391 17.546875 L 22.824219 17.546875 L 22.824219 11.783203 L 0.3515625 11.783203 z M 44.277344 18.248047 C 42.801545 18.248047 41.409714 18.556076 40.103516 19.171875 C 38.810517 19.787774 37.674912 20.632126 36.695312 21.703125 C 35.728613 22.760824 34.964143 24.004901 34.402344 25.4375 C 33.840944 26.870099 33.560547 28.409742 33.560547 30.056641 C 33.560547 31.569639 33.840944 32.988954 34.402344 34.314453 C 34.964143 35.639852 35.728613 36.798363 36.695312 37.789062 C 37.674912 38.779962 38.810517 39.562872 40.103516 40.138672 C 41.409714 40.700771 42.801545 40.982422 44.277344 40.982422 C 45.152543 40.982422 46.00142 40.874256 46.824219 40.660156 C 47.660118 40.459456 48.44896 40.159512 49.193359 39.757812 C 49.950859 39.356113 50.650916 38.866815 51.291016 38.291016 C 51.944015 37.715516 52.517472 37.066849 53.013672 36.34375 L 49.095703 32.306641 C 48.886803 32.78864 48.612837 33.231113 48.273438 33.632812 C 47.946838 34.021112 47.567618 34.355719 47.136719 34.636719 C 46.718619 34.904618 46.268556 35.112566 45.785156 35.259766 C 45.301857 35.406965 44.799743 35.480469 44.277344 35.480469 C 43.545944 35.480469 42.852218 35.339893 42.199219 35.058594 C 41.559119 34.777594 40.998725 34.388078 40.515625 33.892578 C 40.045425 33.397479 39.672537 32.821815 39.398438 32.166016 C 39.124238 31.509816 38.986328 30.80624 38.986328 30.056641 C 38.986328 29.132842 39.124238 28.290443 39.398438 27.527344 C 39.672537 26.764145 40.045425 26.107493 40.515625 25.558594 C 40.998725 24.996294 41.559119 24.561806 42.199219 24.253906 C 42.852218 23.946007 43.545944 23.791016 44.277344 23.791016 C 44.799743 23.791016 45.308488 23.872603 45.804688 24.033203 C 46.301187 24.193903 46.757882 24.428428 47.175781 24.736328 C 47.606881 25.044328 47.992532 25.42566 48.332031 25.880859 C 48.671731 26.322659 48.938966 26.824419 49.134766 27.386719 L 53.054688 23.349609 C 52.584488 22.53291 52.02204 21.81094 51.369141 21.181641 C 50.729041 20.552341 50.024605 20.02215 49.253906 19.59375 C 48.496407 19.15195 47.692749 18.817444 46.84375 18.589844 C 46.007851 18.362144 45.152543 18.248047 44.277344 18.248047 z M 25.234375 19.072266 L 25.234375 40.580078 L 30.621094 40.580078 L 30.621094 19.072266 L 25.234375 19.072266 z M 77.308594 19.072266 L 77.308594 40.580078 L 82.695312 40.580078 L 82.695312 19.072266 L 77.308594 19.072266 z M 103.26758 19.113281 L 103.26758 24.574219 L 112.10352 24.574219 L 103.26758 40.580078 L 120.76172 40.580078 L 120.76172 35.117188 L 111.92578 35.117188 L 120.76172 19.113281 L 103.26758 19.113281 z M 122.93945 21.089844 C 122.926 21.090734 122.91364 21.094031 122.90039 21.097656 C 122.84839 21.112156 122.80339 21.146813 122.77539 21.195312 L 117.54492 30.482422 L 117.54492 30.484375 C 117.53192 30.508275 117.52158 30.533147 117.51758 30.560547 C 117.51458 30.588247 117.51644 30.617731 117.52344 30.644531 C 117.53044 30.671431 117.54259 30.694597 117.55859 30.716797 C 117.57559 30.738697 117.59514 30.757484 117.61914 30.771484 L 119.38281 31.814453 C 119.49181 31.687453 119.63973 31.601919 119.80273 31.574219 C 119.96573 31.546819 120.13239 31.579563 120.27539 31.664062 C 120.41839 31.748762 120.52989 31.880863 120.58789 32.039062 C 120.64689 32.197262 120.6487 32.37085 120.5957 32.53125 L 122.33594 33.560547 C 122.34294 33.565947 122.35042 33.571472 122.35742 33.576172 C 122.38142 33.590172 122.40659 33.597663 122.43359 33.601562 C 122.45959 33.605062 122.48767 33.604756 122.51367 33.597656 C 122.53967 33.590556 122.56394 33.577547 122.58594 33.560547 C 122.60694 33.543847 122.62467 33.522247 122.63867 33.498047 L 127.86914 24.210938 C 127.88314 24.186938 127.89248 24.160312 127.89648 24.132812 C 127.89948 24.105313 127.89862 24.077581 127.89062 24.050781 C 127.88463 24.023981 127.87147 23.998562 127.85547 23.976562 C 127.83947 23.954563 127.81792 23.935775 127.79492 23.921875 C 127.78992 23.919475 127.78525 23.918216 127.78125 23.916016 L 126.03125 22.880859 C 125.92225 23.008059 125.77433 23.091641 125.61133 23.119141 C 125.44833 23.146741 125.28167 23.11585 125.13867 23.03125 C 124.99567 22.94645 124.88517 22.812897 124.82617 22.654297 C 124.76817 22.495697 124.76436 22.322609 124.81836 22.162109 L 123.05664 21.119141 C 123.02064 21.098216 122.97981 21.087172 122.93945 21.089844 z M 123.36328 22.705078 C 123.40322 22.702411 123.44252 22.711422 123.47852 22.732422 L 126.21875 24.355469 C 126.24275 24.369369 126.2623 24.388156 126.2793 24.410156 C 126.2953 24.432056 126.30745 24.455622 126.31445 24.482422 C 126.32145 24.509122 126.32331 24.536953 126.32031 24.564453 C 126.31631 24.591853 126.30792 24.618578 126.29492 24.642578 L 122.2168 31.882812 C 122.2028 31.907012 122.18506 31.928613 122.16406 31.945312 C 122.14206 31.962312 122.1178 31.975222 122.0918 31.982422 C 122.0658 31.989522 122.03772 31.991781 122.01172 31.988281 C 121.98472 31.984681 121.95955 31.974937 121.93555 31.960938 L 119.19531 30.339844 C 119.17231 30.325844 119.15077 30.307156 119.13477 30.285156 C 119.11777 30.263256 119.10661 30.237537 119.09961 30.210938 C 119.09261 30.184038 119.08975 30.156306 119.09375 30.128906 C 119.09775 30.101506 119.10514 30.074681 119.11914 30.050781 L 123.19727 22.810547 C 123.22427 22.762047 123.26927 22.727391 123.32227 22.712891 C 123.33527 22.709266 123.34997 22.705967 123.36328 22.705078 z M 123.04102 26.085938 C 123.03489 26.086687 123.02894 26.087194 123.02344 26.089844 C 123.01244 26.095044 123.00209 26.104234 122.99609 26.115234 L 122.57617 26.863281 L 121.73047 26.701172 C 121.71847 26.698872 121.70436 26.701731 121.69336 26.707031 C 121.68236 26.712331 121.67397 26.719469 121.66797 26.730469 C 121.66197 26.741369 121.6572 26.754978 121.6582 26.767578 C 121.6592 26.780178 121.66583 26.791181 121.67383 26.800781 L 122.23242 27.472656 L 121.8125 28.21875 C 121.8065 28.23005 121.80369 28.243259 121.80469 28.255859 C 121.80569 28.268759 121.81036 28.281416 121.81836 28.291016 C 121.82636 28.300616 121.83761 28.307547 121.84961 28.310547 C 121.86261 28.313647 121.87472 28.311241 121.88672 28.306641 L 122.66406 27.990234 L 123.23828 28.677734 C 123.24628 28.687034 123.25753 28.694166 123.26953 28.697266 C 123.28153 28.700266 123.29464 28.699612 123.30664 28.695312 C 123.31764 28.690913 123.32698 28.682275 123.33398 28.671875 C 123.34098 28.661475 123.34375 28.649319 123.34375 28.636719 L 123.32812 27.714844 L 124.11523 27.267578 C 124.12623 27.261378 124.13563 27.251634 124.14062 27.240234 C 124.14562 27.228934 124.14848 27.215625 124.14648 27.203125 C 124.14448 27.190725 124.13886 27.178922 124.13086 27.169922 C 124.12186 27.161022 124.10966 27.156497 124.09766 27.154297 L 123.23047 26.988281 L 123.10742 26.136719 C 123.10542 26.124219 123.1008 26.112616 123.0918 26.103516 C 123.0828 26.094316 123.07255 26.088337 123.06055 26.085938 C 123.05455 26.084788 123.04714 26.085188 123.04102 26.085938 z " />
</svg>
